<?xml version="1.0" encoding="UTF-8" standalone="no"?>
<svg
   xmlns:dc="http://purl.org/dc/elements/1.1/"
   xmlns:cc="http://creativecommons.org/ns#"
   xmlns:rdf="http://www.w3.org/1999/02/22-rdf-syntax-ns#"
   xmlns:svg="http://www.w3.org/2000/svg"
   xmlns="http://www.w3.org/2000/svg"
   xmlns:sodipodi="http://sodipodi.sourceforge.net/DTD/sodipodi-0.dtd"
   xmlns:inkscape="http://www.inkscape.org/namespaces/inkscape"
   version="1.1"
   id="Layer_1"
   x="0px"
   y="0px"
   viewBox="0 0 500.00001 500.00001"
   xml:space="preserve"
   sodipodi:docname="action.svg"
   width="500"
   height="500"
   inkscape:version="0.92.2 5c3e80d, 2017-08-06"><metadata
     id="metadata13"><rdf:RDF><cc:Work
         rdf:about=""><dc:format>image/svg+xml</dc:format><dc:type
           rdf:resource="http://purl.org/dc/dcmitype/StillImage" /><dc:title></dc:title></cc:Work></rdf:RDF></metadata><defs
     id="defs11" /><sodipodi:namedview
     pagecolor="#ffffff"
     bordercolor="#666666"
     borderopacity="1"
     objecttolerance="10"
     gridtolerance="10"
     guidetolerance="10"
     inkscape:pageopacity="0"
     inkscape:pageshadow="2"
     inkscape:window-width="1712"
     inkscape:window-height="860"
     id="namedview9"
     showgrid="false"
     inkscape:zoom="0.67902508"
     inkscape:cx="207.66606"
     inkscape:cy="275.0402"
     inkscape:window-x="655"
     inkscape:window-y="225"
     inkscape:window-maximized="0"
     inkscape:current-layer="Layer_1" /><style
     type="text/css"
     id="style2">.st0{fill-rule:evenodd;clip-rule:evenodd;}</style><g
     id="g6"
     transform="matrix(3.90625,0,0,3.90625,10.308898,9.6911035)"
     style="fill:#4d4d4d;fill-opacity:1"><path
       class="st0"
       d="m 61.44,0 c 33.93,0 61.44,27.51 61.44,61.44 0,33.93 -27.51,61.44 -61.44,61.44 C 27.51,122.88 0,95.37 0,61.44 0,27.51 27.51,0 61.44,0 Z m 21.87,65.24 c 3.13,-2.02 3.12,-4.27 0,-6.06 L 50.98,40.6 C 48.43,39 45.77,39.94 45.84,43.27 l 0.1,37.55 c 0.22,3.61 2.28,4.6 5.32,2.93 z M 61.44,12.48 c 27.04,0 48.96,21.92 48.96,48.96 0,27.04 -21.92,48.96 -48.96,48.96 C 34.4,110.4 12.48,88.48 12.48,61.44 12.48,34.4 34.4,12.48 61.44,12.48 Z"
       id="path4"
       inkscape:connector-curvature="0"
       style="clip-rule:evenodd;fill:#4d4d4d;fill-opacity:1;fill-rule:evenodd" /></g></svg>