<?xml version="1.0" encoding="UTF-8" standalone="no"?>
<!-- Created with Inkscape (http://www.inkscape.org/) -->

<svg
   xmlns:dc="http://purl.org/dc/elements/1.1/"
   xmlns:cc="http://creativecommons.org/ns#"
   xmlns:rdf="http://www.w3.org/1999/02/22-rdf-syntax-ns#"
   xmlns:svg="http://www.w3.org/2000/svg"
   xmlns="http://www.w3.org/2000/svg"
   xmlns:sodipodi="http://sodipodi.sourceforge.net/DTD/sodipodi-0.dtd"
   xmlns:inkscape="http://www.inkscape.org/namespaces/inkscape"
   width="500"
   height="500"
   viewBox="0 0 499.99998 499.99998"
   id="svg5330"
   version="1.1"
   inkscape:version="0.91 r13725"
   sodipodi:docname="copyToClipboard.svg">
  <defs
     id="defs5332" />
  <sodipodi:namedview
     id="base"
     pagecolor="#ffffff"
     bordercolor="#666666"
     borderopacity="1.0"
     inkscape:pageopacity="0.0"
     inkscape:pageshadow="2"
     inkscape:zoom="0.846"
     inkscape:cx="280.0973"
     inkscape:cy="146.48492"
     inkscape:document-units="px"
     inkscape:current-layer="layer1"
     showgrid="false"
     units="px"
     inkscape:window-width="1920"
     inkscape:window-height="1025"
     inkscape:window-x="1920"
     inkscape:window-y="0"
     inkscape:window-maximized="1"
     inkscape:snap-global="false" />
  <metadata
     id="metadata5335">
    <rdf:RDF>
      <cc:Work
         rdf:about="">
        <dc:format>image/svg+xml</dc:format>
        <dc:type
           rdf:resource="http://purl.org/dc/dcmitype/StillImage" />
        <dc:title></dc:title>
      </cc:Work>
    </rdf:RDF>
  </metadata>
  <g
     inkscape:label="Layer 1"
     inkscape:groupmode="layer"
     id="layer1"
     transform="translate(0,-552.36209)">
    <path
       style="color:#000000;font-style:normal;font-variant:normal;font-weight:normal;font-stretch:normal;font-size:medium;line-height:normal;font-family:sans-serif;text-indent:0;text-align:start;text-decoration:none;text-decoration-line:none;text-decoration-style:solid;text-decoration-color:#000000;letter-spacing:normal;word-spacing:normal;text-transform:none;direction:ltr;block-progression:tb;writing-mode:lr-tb;baseline-shift:baseline;text-anchor:start;white-space:normal;clip-rule:nonzero;display:inline;overflow:visible;visibility:visible;opacity:1;isolation:auto;mix-blend-mode:normal;color-interpolation:sRGB;color-interpolation-filters:linearRGB;solid-color:#000000;solid-opacity:1;fill:#4d4d4d;fill-opacity:1;fill-rule:nonzero;stroke:none;stroke-width:57.85241699;stroke-linecap:round;stroke-linejoin:round;stroke-miterlimit:6.69999981;stroke-dasharray:none;stroke-dashoffset:64.99999237;stroke-opacity:1;color-rendering:auto;image-rendering:auto;shape-rendering:auto;text-rendering:auto;enable-background:accumulate"
       d="m 171.57358,577.36208 a 17.716751,15.819949 0 0 0 -17.7146,15.81803 l 0,12.09882 -46.29617,0 0,31.04808 161.80899,0 0,-31.04808 -43.6203,0 0,-12.09882 a 17.716751,15.819949 0 0 0 -17.71682,-15.81803 l -36.4611,0 z m 18.48577,11.94097 a 16.969957,15.153109 0 0 1 16.96995,15.1531 16.969957,15.153109 0 0 1 -16.96995,15.15311 16.969957,15.153109 0 0 1 -16.96996,-15.15311 16.969957,15.153109 0 0 1 16.96996,-15.1531 z M 57.724615,612.03074 a 32.728403,29.224415 0 0 0 -32.724618,29.22103 l 0,316.26985 a 32.728403,29.224415 0 0 0 32.724618,29.22103 l 165.748745,0 0,40.61935 187.12692,0 64.39967,-57.5048 0,-194.1137 -119.24489,0 0,-134.49173 a 32.728403,29.224415 0 0 0 -32.72682,-29.22103 l -28.24791,0 0,44.59512 -211.289222,0 0,-44.59512 -25.766493,0 z m 188.441655,183.1336 207.08429,0 0,161.42205 -56.45826,0 0,50.51041 -150.62603,0 0,-211.93246 z m 33.90456,17.88777 0,17.91145 141.74995,0 0,-17.91145 -141.74995,0 z m -1.33683,39.40598 0,17.91144 141.74996,0 0,-17.91144 -141.74996,0 z m 1.33683,39.40597 0,17.91145 141.74995,0 0,-17.91145 -141.74995,0 z m 0,39.40401 0,17.91145 141.74995,0 0,-17.91145 -141.74995,0 z m 1.33682,39.40597 0,17.91145 100.29509,0 0,-17.91145 -100.29509,0 z"
       id="rect4217"
       inkscape:connector-curvature="0" />
  </g>
</svg>
