<?xml version="1.0" encoding="UTF-8" standalone="no"?>
<svg
   xmlns:dc="http://purl.org/dc/elements/1.1/"
   xmlns:cc="http://creativecommons.org/ns#"
   xmlns:rdf="http://www.w3.org/1999/02/22-rdf-syntax-ns#"
   xmlns:svg="http://www.w3.org/2000/svg"
   xmlns="http://www.w3.org/2000/svg"
   xmlns:sodipodi="http://sodipodi.sourceforge.net/DTD/sodipodi-0.dtd"
   xmlns:inkscape="http://www.inkscape.org/namespaces/inkscape"
   version="1.1"
   id="Capa_1"
   x="0px"
   y="0px"
   width="500"
   height="500"
   viewBox="0 0 500 500"
   xml:space="preserve"
   sodipodi:docname="delete.svg"
   inkscape:version="1.0.1 (3bc2e813f5, 2020-09-07)"><metadata
   id="metadata45"><rdf:RDF><cc:Work
       rdf:about=""><dc:format>image/svg+xml</dc:format><dc:type
         rdf:resource="http://purl.org/dc/dcmitype/StillImage" /><dc:title></dc:title></cc:Work></rdf:RDF></metadata><defs
   id="defs43" /><sodipodi:namedview
   pagecolor="#ffffff"
   bordercolor="#666666"
   borderopacity="1"
   objecttolerance="10"
   gridtolerance="10"
   guidetolerance="10"
   inkscape:pageopacity="0"
   inkscape:pageshadow="2"
   inkscape:window-width="1795"
   inkscape:window-height="1077"
   id="namedview41"
   showgrid="false"
   inkscape:zoom="0.87518942"
   inkscape:cx="195.69849"
   inkscape:cy="231.1721"
   inkscape:window-x="0"
   inkscape:window-y="0"
   inkscape:window-maximized="0"
   inkscape:current-layer="Capa_1" />
<g
   id="g8"
   style="fill:#4d4d4d;fill-opacity:1"
   transform="matrix(1.1534793,0,0,1.1534793,18.021906,15.634206)">
	<g
   id="g6"
   style="fill:#4d4d4d;fill-opacity:1">
		<path
   d="m 87.748,388.784 c 0.461,11.01 9.521,19.699 20.539,19.699 h 191.911 c 11.018,0 20.078,-8.689 20.539,-19.699 L 334.442,99.468 H 74.043 Z M 247.655,171.329 c 0,-4.61 3.738,-8.349 8.35,-8.349 h 13.355 c 4.609,0 8.35,3.738 8.35,8.349 v 165.293 c 0,4.611 -3.738,8.349 -8.35,8.349 h -13.355 c -4.61,0 -8.35,-3.736 -8.35,-8.349 z m -58.439,0 c 0,-4.61 3.738,-8.349 8.349,-8.349 h 13.355 c 4.609,0 8.349,3.738 8.349,8.349 v 165.293 c 0,4.611 -3.737,8.349 -8.349,8.349 h -13.355 c -4.61,0 -8.349,-3.736 -8.349,-8.349 z m -58.441,0 c 0,-4.61 3.738,-8.349 8.349,-8.349 h 13.356 c 4.61,0 8.349,3.738 8.349,8.349 v 165.293 c 0,4.611 -3.738,8.349 -8.349,8.349 h -13.356 c -4.61,0 -8.349,-3.736 -8.349,-8.349 z"
   id="path2"
   style="fill:#4d4d4d;fill-opacity:1" />
		<path
   d="M 343.567,21.043 H 255.032 V 4.305 C 255.032,1.928 253.105,0 250.727,0 h -92.971 c -2.377,0 -4.304,1.928 -4.304,4.305 V 21.042 H 64.916 c -7.125,0 -12.9,5.776 -12.9,12.901 V 74.47 H 356.467 V 33.944 c 0,-7.125 -5.775,-12.901 -12.9,-12.901 z"
   id="path4"
   style="fill:#4d4d4d;fill-opacity:1" />
	</g>
</g>
<g
   id="g10">
</g>
<g
   id="g12">
</g>
<g
   id="g14">
</g>
<g
   id="g16">
</g>
<g
   id="g18">
</g>
<g
   id="g20">
</g>
<g
   id="g22">
</g>
<g
   id="g24">
</g>
<g
   id="g26">
</g>
<g
   id="g28">
</g>
<g
   id="g30">
</g>
<g
   id="g32">
</g>
<g
   id="g34">
</g>
<g
   id="g36">
</g>
<g
   id="g38">
</g>
</svg>
