<?xml version="1.0" encoding="UTF-8" standalone="no"?>
<svg
   xmlns:dc="http://purl.org/dc/elements/1.1/"
   xmlns:cc="http://creativecommons.org/ns#"
   xmlns:rdf="http://www.w3.org/1999/02/22-rdf-syntax-ns#"
   xmlns:svg="http://www.w3.org/2000/svg"
   xmlns="http://www.w3.org/2000/svg"
   xmlns:sodipodi="http://sodipodi.sourceforge.net/DTD/sodipodi-0.dtd"
   xmlns:inkscape="http://www.inkscape.org/namespaces/inkscape"
   width="500mm"
   height="500mm"
   viewBox="0 0 500 500"
   version="1.1"
   id="svg8"
   inkscape:version="1.0.1 (3bc2e813f5, 2020-09-07)"
   sodipodi:docname="wayland.svg">
  <defs
     id="defs2" />
  <sodipodi:namedview
     id="base"
     pagecolor="#ffffff"
     bordercolor="#666666"
     borderopacity="1.0"
     inkscape:pageopacity="0.0"
     inkscape:pageshadow="2"
     inkscape:zoom="0.35"
     inkscape:cx="400"
     inkscape:cy="560"
     inkscape:document-units="mm"
     inkscape:current-layer="layer1"
     inkscape:document-rotation="0"
     showgrid="false"
     inkscape:window-width="1920"
     inkscape:window-height="1005"
     inkscape:window-x="0"
     inkscape:window-y="0"
     inkscape:window-maximized="1" />
  <metadata
     id="metadata5">
    <rdf:RDF>
      <cc:Work
         rdf:about="">
        <dc:format>image/svg+xml</dc:format>
        <dc:type
           rdf:resource="http://purl.org/dc/dcmitype/StillImage" />
        <dc:title></dc:title>
      </cc:Work>
    </rdf:RDF>
  </metadata>
  <g
     inkscape:label="Layer 1"
     inkscape:groupmode="layer"
     id="layer1">
    <ellipse
       style="fill:#4d4d4d;fill-opacity:1;stroke:none;stroke-width:1.91999;stroke-miterlimit:4;stroke-dasharray:none"
       id="path2985"
       cx="258.38675"
       cy="250.58333"
       rx="231.80307"
       ry="240" />
    <g
       transform="matrix(1.7275063,0,0,2.1335852,-385.81013,-658.21723)"
       style="font-style:normal;font-variant:normal;font-weight:bold;font-stretch:normal;font-size:437.474px;line-height:125%;letter-spacing:0px;word-spacing:0px;fill:#ffffff;fill-opacity:1;stroke:none;stroke-width:1.00008;stroke-miterlimit:4;stroke-dasharray:none"
       id="text2987">
      <path
         d="m 443.91049,314.59549 h 2.34971 l -1.49527,1.49528 h -0.85444 v -1.49528 m -173.02434,3.63138 v 1.70888 l -5.55387,6.83553 h -0.85444 l -0.85444,-5.34026 c 3.27538,-2.13591 5.69629,-3.20396 7.26275,-3.20415 m 202.50256,2.34971 c 4.84164,1.9e-4 7.54736,3.06194 8.11719,9.18524 l -4.0586,28.83739 h 1.49528 l 3.20415,-2.1361 h 0.85444 v 0.64083 c -4.41481,2.70589 -8.68701,10.11103 -12.81662,22.21547 -1.56666,10.39583 -4.20118,20.00828 -7.90358,28.83739 -3.27553,9.11414 -4.91321,17.51613 -4.91303,25.20602 l -6.1947,15.16633 c -1.7e-4,1.28172 2.34954,2.56338 7.04914,3.84498 -0.85462,2.9906 -2.13628,4.48587 -3.84499,4.48582 v 0.85444 h 1.49527 v 0.64083 c -1.7e-4,1.56653 -2.42108,2.34977 -7.26275,2.34971 l 0.85444,0.85444 v 2.99055 h -1.49527 c 0.99668,2.99059 3.13279,4.48586 6.40831,4.48581 v 1.49528 h -6.40831 v 0.85444 c 2.13594,4e-5 3.20399,1.2817 3.20416,3.84498 l -8.97163,2.99055 0.85444,0.85444 v 0.64083 c -1.6e-4,0.99688 -1.06821,1.4953 -3.20416,1.49527 v 0.85444 c 2.70557,3e-5 4.05844,0.49846 4.0586,1.49527 -3.84515,1.28169 -8.90058,7.61879 -15.16633,19.01132 -6.40845,10.11089 -11.96231,15.16633 -16.66161,15.16633 h -1.70888 c -3.56029,-2.27851 -6.47963,-9.82607 -8.75802,-22.64269 -9.11415,-19.5097 -13.67116,-30.97344 -13.67106,-34.39126 -1e-4,-8.82916 -2.91944,-18.228 -8.75802,-28.19656 -1.56657,-4.41452 -2.63462,-9.96839 -3.20416,-16.6616 l -3.84498,-0.85444 c -9.68375,14.66799 -14.73919,26.13173 -15.16633,34.39126 -2.7058,4.84189 -4.8419,10.68057 -6.40831,17.51604 5.83861,1.56652 8.75795,3.06179 8.75802,4.48582 v 0.85444 c -4.55709,-0.56959 -7.76124,-1.63764 -9.61246,-3.20416 -1.99376,3.84503 -4.62829,14.52553 -7.90358,32.04155 -2.56338,8.11719 -5.76753,12.17578 -9.61247,12.17578 -10.82295,-3.56016 -19.86578,-9.39884 -27.1285,-17.51604 -1.13928,2e-5 -2.99057,-4.05857 -5.55387,-12.17579 -1.56649,3e-5 -2.63454,-4.05856 -3.20415,-12.17578 -5.41147,-11.5349 -9.11405,-24.70753 -11.10774,-39.51791 v -22.21547 h -0.85444 l -3.84499,0.85444 v -0.85444 c 1e-5,-0.99674 1.28167,-1.49516 3.84499,-1.49527 l -0.85444,-12.81662 V 385.3005 l -6.1947,-32.04154 V 339.5879 c 2.70573,-8.54423 7.40515,-12.81643 14.09828,-12.81662 h 44.85816 v 1.49527 c -3.56022,0.14259 -5.98114,0.92583 -7.26275,2.34972 -2.70577,-1.5663 -5.3403,-2.34953 -7.90358,-2.34972 h -8.75802 l -4.91304,0.64083 -0.85444,-0.64083 h -0.64083 l -6.40831,0.64083 -3.20415,-0.64083 -2.34972,0.64083 -2.56332,-0.64083 c 10.39568,11.39272 16.51917,21.00518 18.37048,28.83739 h 7.26275 v 1.49527 h -5.55386 v 1.70889 c 2.13607,6.55086 3.70254,9.82621 4.69942,9.82607 h 1.70889 l 3.84498,-0.85444 0.85444,0.85444 0.85444,-0.85444 0.85444,0.85444 v 0.64083 c -2.84817,1.70902 -4.77066,4.05873 -5.76747,7.04914 h -0.64083 v 1.49527 h 1.49527 c 1.99366,23.78206 5.69623,41.79651 11.10773,54.04341 l 3.20416,2.1361 h 1.70888 c 2.13605,8e-5 6.62186,-8.33072 13.45745,-24.99241 4.41454,-7.54745 7.61869,-14.16936 9.61246,-19.86575 l -0.85444,-2.34972 c 4.41453,-5.55373 8.97155,-8.33066 13.67106,-8.3308 h 1.49527 c 2.99045,1.4e-4 5.12655,1.56661 6.40831,4.69943 3.98729,4.69955 7.19144,11.74868 9.61246,21.14742 l 11.96218,22.21547 c 1.56635,1.56656 2.34959,3.34664 2.34971,5.34026 4.41449,8.40207 8.40188,13.95593 11.96218,16.6616 h 2.56332 c 2.99041,6e-5 6.9778,-10.39563 11.96218,-31.1871 0.85429,9e-5 3.204,-5.55377 7.04914,-16.66161 v -0.85444 l -13.45745,-1.49527 -3.20416,0.85444 h -4.05859 v -1.70888 l 8.11719,-0.64083 h 15.80716 c 6.12333,-18.37035 11.7484,-32.61103 16.87521,-42.72206 1.70871,-20.79122 4.05842,-31.18691 7.04914,-31.1871 l 9.61247,-3.84499 m -45.49899,2.34971 c -0.85459,1.99389 -2.70588,2.99074 -5.55387,2.99055 v -1.49527 l 5.55387,-1.49528 m -80.53108,3.84499 h 21.57464 v 1.49527 l -4.91304,0.64083 -4.69943,-0.64083 -4.05859,1.49527 -1.49528,-1.49527 h -6.4083 v -1.49527 m -112.35902,2.99054 h 2.34972 l 1.49527,1.49528 v 0.85444 l -4.69943,4.48581 v 3.84499 h -1.70888 v -2.34971 l 0.85444,-0.64084 v -0.85444 l -4.0586,-3.84498 c 0.99691,-1.99352 2.9194,-2.99036 5.76748,-2.99055 m 157.00357,9.18525 h 2.34971 v 0.64083 c -1.1e-4,0.99702 -0.78335,1.49544 -2.34971,1.49527 l -0.85444,0.85444 v 0.85444 l -2.34972,-0.85444 v -1.49527 l 3.20416,-1.49527 m -11.96218,8.3308 v 0.85444 c -1e-4,1.13942 -3.41786,2.34988 -10.25329,3.63137 v -1.49527 l 4.69942,-2.1361 0.85444,0.64083 h 0.64083 l 4.0586,-1.49527 m -139.48752,7.68997 v 0.64083 l -1.70888,1.49527 -0.64083,-0.64083 v -0.85444 l 0.64083,-0.64083 h 1.70888 m 116.41761,0 v 0.64083 c -2.99062,2.27866 -7.83244,4.34356 -14.5255,6.1947 v -1.49527 c 1.13919,1.5e-4 1.70882,-0.78309 1.70888,-2.34972 l 12.81662,-2.99054 m 40.58595,7.47636 0.85445,0.85444 v 0.64083 l -1.49528,1.70888 h -0.85444 l -1.70888,-1.70888 v -0.64083 l 3.20415,-0.85444 m 29.47822,0.85444 h 0.85445 v 0.64083 l -1.49528,1.70888 H 425.54 v -0.85444 l 1.49527,-1.49527 m -13.45744,10.68051 3.20415,2.13611 c -0.56976,1.56661 -2.13623,2.34985 -4.69943,2.34971 l -1.70888,-2.34971 c -1.3e-4,-0.7119 1.06792,-1.42393 3.20416,-2.13611 m 19.22492,9.82608 0.64083,0.85444 v 0.64083 l -0.64083,0.85444 h -1.70888 v -0.85444 l 1.70888,-1.49527 m -30.33266,7.68997 v 0.64083 l -4.05859,3.20415 h -2.34972 v -0.85444 c -1.1e-4,-1.28154 2.13599,-2.27839 6.40831,-2.99054 m -132.43838,29.69183 h 0.85444 v 0.64083 c -2.13609,4.69951 -3.98737,7.54765 -5.55387,8.54441 h -1.70888 v -3.20415 l 6.40831,-5.98109 m 104.45543,35.67292 h 0.85444 v 1.49527 l -6.4083,3.20415 -0.85445,-0.85444 v -1.49527 l 6.40831,-2.34971 m -87.79383,10.03968 h 1.49527 l 2.56333,8.3308 h -1.70888 l -2.34972,-7.68997 v -0.64083 m 85.44412,9.82607 h 0.64083 l 2.56332,2.34972 -0.85444,0.64083 h -0.85444 l -1.49527,-2.1361 v -0.85445"
         id="path2986"
         inkscape:connector-curvature="0"
         sodipodi:nodetypes="cccccccccccccccccccccccccccccccccccccccccccsccccccccccccccccccccsccccccccccccccccccccccccccccccccccccccccccccccccccccccccccccccccccccccccccccccccccccccccccccccccccccccccccccccccccccccccccccccccccccccccccccccccccccccccccccccccccccccccccccccc"
         style="stroke-width:1.00008;stroke-miterlimit:4;stroke-dasharray:none" />
    </g>
  </g>
</svg>
