<?xml version="1.0" encoding="UTF-8" standalone="no"?>
<!-- Created with Inkscape (http://www.inkscape.org/) -->

<svg
   xmlns:dc="http://purl.org/dc/elements/1.1/"
   xmlns:cc="http://creativecommons.org/ns#"
   xmlns:rdf="http://www.w3.org/1999/02/22-rdf-syntax-ns#"
   xmlns:svg="http://www.w3.org/2000/svg"
   xmlns="http://www.w3.org/2000/svg"
   xmlns:sodipodi="http://sodipodi.sourceforge.net/DTD/sodipodi-0.dtd"
   xmlns:inkscape="http://www.inkscape.org/namespaces/inkscape"
   width="500"
   height="500"
   viewBox="0 0 499.99998 499.99998"
   id="svg5330"
   version="1.1"
   inkscape:version="0.92.3 (2405546, 2018-03-11)"
   sodipodi:docname="inserImage.svg">
  <defs
     id="defs5332" />
  <sodipodi:namedview
     id="base"
     pagecolor="#ffffff"
     bordercolor="#666666"
     borderopacity="1.0"
     inkscape:pageopacity="0.0"
     inkscape:pageshadow="2"
     inkscape:zoom="1.1964247"
     inkscape:cx="73.369439"
     inkscape:cy="291.38084"
     inkscape:document-units="px"
     inkscape:current-layer="layer1"
     showgrid="false"
     units="px"
     inkscape:window-width="2048"
     inkscape:window-height="1089"
     inkscape:window-x="-8"
     inkscape:window-y="-8"
     inkscape:window-maximized="1"
     inkscape:snap-global="false" />
  <metadata
     id="metadata5335">
    <rdf:RDF>
      <cc:Work
         rdf:about="">
        <dc:format>image/svg+xml</dc:format>
        <dc:type
           rdf:resource="http://purl.org/dc/dcmitype/StillImage" />
        <dc:title></dc:title>
      </cc:Work>
    </rdf:RDF>
  </metadata>
  <g
     inkscape:label="Layer 1"
     inkscape:groupmode="layer"
     id="layer1"
     transform="translate(0,-552.36209)">
    <path
       inkscape:connector-curvature="0"
       style="fill:#e6e6e6;stroke:none;stroke-width:24.43229675;stroke-opacity:0.8;fill-opacity:1"
       d="m 61.504827,606.89149 c -10.9701,0 -19.863464,8.89336 -19.863464,19.86346 v 351.21428 c 0,10.9701 8.893364,19.86346 19.863464,19.86346 H 438.49518 c 10.9701,0 19.86346,-8.89336 19.86346,-19.86346 V 626.75495 c 0,-10.9701 -8.89336,-19.86346 -19.86346,-19.86346 H 61.504827 M 323.2969,641.09671 h 29.29431 v 58.63751 h 58.63752 v 29.29433 h -58.63752 v 58.63751 H 323.2969 V 729.02855 H 264.65939 V 699.73422 H 323.2969 V 641.09671 M 186.96468,769.92822 c 4.34894,-0.41535 8.96665,1.83241 12.77809,6.81661 l 78.54983,102.73781 c 7.64731,9.9928 21.03621,10.84794 29.88071,1.90572 l 19.17935,-19.47254 c 8.82005,-8.94222 21.84247,-7.86721 29.05,2.44323 l 49.76859,71.14685 c 7.18309,10.31043 2.83415,18.66628 -9.72406,18.66628 H 250.00001 110.02737 c -12.582633,0 -18.177623,-9.08881 -12.509333,-20.32768 L 175.62809,778.9926 c 2.83414,-5.61943 6.93877,-8.64903 11.31215,-9.06438"
       id="path2" />
  </g>
</svg>
