<?xml version="1.0" encoding="UTF-8" standalone="no"?>
<!-- Generator: Adobe Illustrator 16.0.0, SVG Export Plug-In . SVG Version: 6.00 Build 0)  -->

<svg
   xmlns:dc="http://purl.org/dc/elements/1.1/"
   xmlns:cc="http://creativecommons.org/ns#"
   xmlns:rdf="http://www.w3.org/1999/02/22-rdf-syntax-ns#"
   xmlns:svg="http://www.w3.org/2000/svg"
   xmlns="http://www.w3.org/2000/svg"
   xmlns:sodipodi="http://sodipodi.sourceforge.net/DTD/sodipodi-0.dtd"
   xmlns:inkscape="http://www.inkscape.org/namespaces/inkscape"
   version="1.1"
   id="Layer_1"
   x="0px"
   y="0px"
   width="512px"
   height="512px"
   viewBox="0 0 512 512"
   enable-background="new 0 0 512 512"
   xml:space="preserve"
   sodipodi:docname="pin.svg"
   inkscape:version="0.92.2 5c3e80d, 2017-08-06"><metadata
     id="metadata9"><rdf:RDF><cc:Work
         rdf:about=""><dc:format>image/svg+xml</dc:format><dc:type
           rdf:resource="http://purl.org/dc/dcmitype/StillImage" /><dc:title></dc:title></cc:Work></rdf:RDF></metadata><defs
     id="defs7" /><sodipodi:namedview
     pagecolor="#ffffff"
     bordercolor="#666666"
     borderopacity="1"
     objecttolerance="10"
     gridtolerance="10"
     guidetolerance="10"
     inkscape:pageopacity="0"
     inkscape:pageshadow="2"
     inkscape:window-width="2560"
     inkscape:window-height="1359"
     id="namedview5"
     showgrid="false"
     inkscape:zoom="0.921875"
     inkscape:cx="158.37681"
     inkscape:cy="157.63226"
     inkscape:window-x="0"
     inkscape:window-y="0"
     inkscape:window-maximized="1"
     inkscape:current-layer="Layer_1" /><path
     d="m 455.84192,59.160026 c -48.87475,-50.2377099 -128.11852,-50.2377099 -176.99489,0 -38.93671,40.02416 -46.81839,99.844264 -23.71381,147.925524 l -233.183658,282.95314 0.19188,0.19561 v 0 l -0.19188,-0.19723 0.19188,0.19723 289.788188,-224.77013 c 46.77522,23.74724 104.9724,15.64742 143.91229,-24.37675 48.87636,-50.23771 48.87636,-131.68968 0,-181.927394 z M 350.83437,108.71563 c -14.58967,-14.996534 -14.58967,-39.310824 0,-54.307354 14.59127,-14.99653 38.2443,-14.99653 52.83397,0 14.58969,14.99653 14.58969,39.31082 0,54.307354 -14.58967,14.99653 -38.2427,14.99653 -52.83397,0 z"
     id="path2-9"
     inkscape:connector-curvature="0"
     sodipodi:nodetypes="cccccccccccccssc"
     style="fill:#e6e6e6;fill-opacity:1;stroke:#e6e6e6;stroke-width:1.6211859;stroke-opacity:1" /></svg>